# xmcd
# 
# Track frame offsets:
#     150
#     13328
#     25948
#     38124
#     51500
#     64942
#     74403
#     86324
#     99666
#     109472
#     123582
#     135457
#     148076
#     161528
#     175921
#     188668
#     200238
#     212617
#     224390
#     239820
#     253510
#     268277
#     280020
#     293447
#     306550
#     319983
# 
# Disc length: 4402
# 
# Revision: 2
# Processed by: cddbd v1.5.2PL0 Copyright (c) Steve Scherf et al.
# Submitted via: fre:ac v1.0.31
# 
DISCID=a311301a
DTITLE=Howlin' Wolf - Smokestack Lightning - The Complete Chess Masters 1951-1960 - Disc 1
DYEAR=2011
DGENRE=Blues
TTITLE0=Moanin' At Midnight
TTITLE1=How Many More Years (alt)
TTITLE2=How Many More Years
TTITLE3=The Wolf Is At You Door (Howlin' For My Baby)
TTITLE4=California Boogie
TTITLE5=Smile At Me
TTITLE6=Howlin' Wolf Boogie
TTITLE7=California Blues #1
TTITLE8=Look-A-Here Baby
TTITLE9=Worried All The Time
TTITLE10=Gettin' Old And Grey
TTITLE11=Mr Highway Man
TTITLE12=Everbody's In The Mood
TTITLE13=Color And Kind
TTITLE14=Bluebird (Blues)
TTITLE15=Saddle My Pony
TTITLE16=Dorothy Mae (alt)
TTITLE17=Dorothy Mae
TTITLE18=Sweet Woman (I Got A Woman)
TTITLE19=Well That's All Right
TTITLE20=Decoration Day (Blues)
TTITLE21=Oh Red
TTITLE22=My Last Affair
TTITLE23=I've Got A Woman
TTITLE24=Just My Kind
TTITLE25=Work For Your Money
EXTD=
EXTT0=
EXTT1=
EXTT2=
EXTT3=
EXTT4=
EXTT5=
EXTT6=
EXTT7=
EXTT8=
EXTT9=
EXTT10=
EXTT11=
EXTT12=
EXTT13=
EXTT14=
EXTT15=
EXTT16=
EXTT17=
EXTT18=
EXTT19=
EXTT20=
EXTT21=
EXTT22=
EXTT23=
EXTT24=
EXTT25=
PLAYORDER=
